<svg width="16.000000" height="15.000000" viewBox="0 0 16 15" fill="none" xmlns="http://www.w3.org/2000/svg" xmlns:xlink="http://www.w3.org/1999/xlink">
	<desc>
			Created with Pixso.
	</desc>
	<defs/>
	<path id="Vector" d="M8 2.74L7.28 2.01C5.59 0.28 2.51 0.87 1.39 3.05C0.87 4.07 0.75 5.55 1.71 7.43C2.63 9.25 4.54 11.42 8 13.79C11.45 11.42 13.36 9.25 14.28 7.43C15.24 5.55 15.12 4.07 14.59 3.05C13.48 0.87 10.39 0.28 8.71 2.01L8 2.74ZM8 15C-7.34 4.86 3.27 -3.04 7.82 1.14C7.88 1.19 7.94 1.25 8 1.31C8.05 1.25 8.11 1.19 8.17 1.14C12.71 -3.05 23.33 4.86 8 15Z" fill="#B73225" fill-opacity="1.000000" fill-rule="nonzero"/>
</svg>
