<svg width="12.000000" height="12.000000" viewBox="0 0 12 12" fill="none" xmlns="http://www.w3.org/2000/svg" xmlns:xlink="http://www.w3.org/1999/xlink">
	<desc>
			Created with Pixso.
	</desc>
	<defs/>
	<path id="Vector" d="M6 6C6.79 6 7.55 5.68 8.12 5.12C8.68 4.55 9 3.79 9 3C9 2.2 8.68 1.44 8.12 0.87C7.55 0.31 6.79 0 6 0C5.2 0 4.44 0.31 3.87 0.87C3.31 1.44 3 2.2 3 3C3 3.79 3.31 4.55 3.87 5.12C4.44 5.68 5.2 6 6 6ZM8 3C8 3.53 7.78 4.03 7.41 4.41C7.03 4.78 6.53 5 6 5C5.46 5 4.96 4.78 4.58 4.41C4.21 4.03 4 3.53 4 3C4 2.46 4.21 1.96 4.58 1.58C4.96 1.21 5.46 1 6 1C6.53 1 7.03 1.21 7.41 1.58C7.78 1.96 8 2.46 8 3ZM12 11C12 12 11 12 11 12L1 12C1 12 0 12 0 11C0 10 1 7 6 7C11 7 12 10 12 11ZM11 10.99C10.99 10.75 10.84 10.01 10.16 9.33C9.51 8.68 8.28 8 6 8C3.7 8 2.48 8.68 1.83 9.33C1.15 10.01 1 10.75 1 10.99L11 10.99Z" fill="#B73225" fill-opacity="1.000000" fill-rule="nonzero"/>
</svg>
