<svg width="17.000000" height="16.000000" viewBox="0 0 17 16" fill="none" xmlns="http://www.w3.org/2000/svg" xmlns:xlink="http://www.w3.org/1999/xlink">
	<desc>
			Created with Pixso.
	</desc>
	<defs/>
	<path id="Vector" d="M11.74 9.34C12.71 8.02 13.14 6.38 12.95 4.75C12.76 3.12 11.97 1.63 10.73 0.56C9.48 -0.5 7.88 -1.06 6.25 -1C4.61 -0.94 3.06 -0.26 1.9 0.9C0.74 2.06 0.06 3.61 0 5.25C-0.06 6.89 0.5 8.49 1.56 9.73C2.63 10.97 4.13 11.77 5.75 11.95C7.38 12.14 9.02 11.71 10.34 10.74L10.34 10.74C10.37 10.78 10.4 10.81 10.44 10.85L14.29 14.7C14.48 14.89 14.73 15 15 15C15.26 15 15.51 14.89 15.7 14.7C15.89 14.52 16 14.26 16 14C16 13.73 15.89 13.48 15.7 13.29L11.85 9.44C11.82 9.4 11.78 9.37 11.74 9.34L11.74 9.34ZM12 5.5C12 6.22 11.85 6.93 11.58 7.6C11.3 8.27 10.9 8.87 10.38 9.38C9.87 9.89 9.27 10.3 8.6 10.58C7.93 10.85 7.22 11 6.5 11C5.77 11 5.06 10.85 4.39 10.58C3.72 10.3 3.12 9.89 2.61 9.38C2.1 8.87 1.69 8.27 1.41 7.6C1.14 6.93 1 6.22 1 5.5C1 4.04 1.58 2.64 2.61 1.61C3.64 0.57 5.04 0 6.5 0C7.95 0 9.35 0.57 10.38 1.61C11.42 2.64 12 4.04 12 5.5Z" fill="#B73225" fill-opacity="1.000000" fill-rule="nonzero"/>
</svg>
