<svg width="15.000000" height="15.000000" viewBox="0 0 15 15" fill="none" xmlns="http://www.w3.org/2000/svg" xmlns:xlink="http://www.w3.org/1999/xlink">
	<desc>
			Created with Pixso.
	</desc>
	<defs/>
	<path id="Vector" d="M0 0.5C0 0.36 0.05 0.24 0.14 0.14C0.24 0.05 0.36 0 0.5 0L2 0C2.11 0 2.21 0.03 2.3 0.1C2.39 0.17 2.45 0.27 2.48 0.37L2.88 2L14.5 2C14.57 2 14.64 2.01 14.71 2.04C14.77 2.07 14.83 2.12 14.88 2.18C14.93 2.23 14.96 2.3 14.98 2.37C15 2.44 15 2.51 14.99 2.59L13.49 10.59C13.46 10.7 13.4 10.81 13.31 10.88C13.22 10.95 13.11 10.99 13 11L4 11C3.88 10.99 3.77 10.95 3.68 10.88C3.59 10.81 3.53 10.7 3.5 10.59L2 2.6L1.61 1L0.5 1C0.36 1 0.24 0.94 0.14 0.85C0.05 0.75 0 0.63 0 0.5ZM3.1 3L4.41 10L12.58 10L13.89 3L3.1 3ZM5 11C4.46 11 3.96 11.21 3.58 11.58C3.21 11.96 3 12.46 3 13C3 13.53 3.21 14.03 3.58 14.41C3.96 14.78 4.46 15 5 15C5.53 15 6.03 14.78 6.41 14.41C6.78 14.03 7 13.53 7 13C7 12.46 6.78 11.96 6.41 11.58C6.03 11.21 5.53 11 5 11ZM12 11C11.46 11 10.96 11.21 10.58 11.58C10.21 11.96 10 12.46 10 13C10 13.53 10.21 14.03 10.58 14.41C10.96 14.78 11.46 15 12 15C12.53 15 13.03 14.78 13.41 14.41C13.78 14.03 14 13.53 14 13C14 12.46 13.78 11.96 13.41 11.58C13.03 11.21 12.53 11 12 11ZM5 12C5.26 12 5.51 12.1 5.7 12.29C5.89 12.48 6 12.73 6 13C6 13.26 5.89 13.51 5.7 13.7C5.51 13.89 5.26 14 5 14C4.73 14 4.48 13.89 4.29 13.7C4.1 13.51 4 13.26 4 13C4 12.73 4.1 12.48 4.29 12.29C4.48 12.1 4.73 12 5 12ZM12 12C12.26 12 12.51 12.1 12.7 12.29C12.89 12.48 13 12.73 13 13C13 13.26 12.89 13.51 12.7 13.7C12.51 13.89 12.26 14 12 14C11.73 14 11.48 13.89 11.29 13.7C11.1 13.51 11 13.26 11 13C11 12.73 11.1 12.48 11.29 12.29C11.48 12.1 11.73 12 12 12Z" fill="#B73225" fill-opacity="1.000000" fill-rule="nonzero"/>
</svg>
