<svg width="17.000000" height="16.000000" viewBox="0 0 17 16" fill="none" xmlns="http://www.w3.org/2000/svg" xmlns:xlink="http://www.w3.org/1999/xlink">
	<desc>
			Created with Pixso.
	</desc>
	<defs/>
	<path id="Vector" d="M16 7.05C16 2.6 12.41 -1 8 -1C3.58 -1 0 2.6 0 7.05C0 11.06 2.92 14.39 6.75 15L6.75 9.37L4.71 9.37L4.71 7.05L6.75 7.05L6.75 5.27C6.75 3.25 7.94 2.14 9.77 2.14C10.65 2.14 11.56 2.3 11.56 2.3L11.56 4.28L10.55 4.28C9.56 4.28 9.25 4.9 9.25 5.54L9.25 7.05L11.47 7.05L11.11 9.37L9.25 9.37L9.25 15C13.07 14.39 16 11.06 16 7.05Z" fill="#FFFFFF" fill-opacity="1.000000" fill-rule="nonzero"/>
</svg>
