<svg width="16.000000" height="16.000000" viewBox="0 0 16 16" fill="none" xmlns="http://www.w3.org/2000/svg" xmlns:xlink="http://www.w3.org/1999/xlink">
	<desc>
			Created with Pixso.
	</desc>
	<defs/>
	<path id="Vector" d="M8 -1C5.82 -1 5.55 -0.99 4.7 -0.96C3.84 -0.92 3.26 -0.78 2.75 -0.58C2.22 -0.38 1.74 -0.07 1.34 0.34C0.93 0.74 0.62 1.22 0.41 1.76C0.22 2.26 0.08 2.85 0.04 3.7C0 4.55 0 4.82 0 7C0 9.17 0 9.44 0.04 10.29C0.08 11.15 0.22 11.73 0.41 12.24C0.62 12.76 0.89 13.21 1.34 13.65C1.78 14.1 2.23 14.37 2.75 14.58C3.26 14.77 3.84 14.91 4.7 14.95C5.55 14.99 5.82 15 8 15C10.17 15 10.44 14.99 11.29 14.95C12.14 14.91 12.73 14.77 13.24 14.58C13.77 14.37 14.25 14.06 14.65 13.65C15.1 13.21 15.37 12.76 15.58 12.24C15.77 11.73 15.91 11.15 15.95 10.29C15.99 9.44 16 9.17 16 7C16 4.82 15.99 4.55 15.95 3.7C15.91 2.85 15.77 2.26 15.58 1.76C15.37 1.22 15.06 0.74 14.65 0.34C14.25 -0.07 13.77 -0.38 13.24 -0.58C12.73 -0.78 12.14 -0.92 11.29 -0.96C10.44 -0.99 10.17 -1 7.99 -1L8 -1L8 -1ZM7.28 0.44L8 0.44C10.13 0.44 10.38 0.44 11.23 0.48C12.01 0.52 12.43 0.65 12.71 0.76C13.09 0.9 13.35 1.08 13.63 1.36C13.91 1.64 14.09 1.9 14.23 2.28C14.34 2.56 14.47 2.98 14.51 3.76C14.55 4.61 14.55 4.86 14.55 6.99C14.55 9.13 14.55 9.38 14.51 10.23C14.47 11.01 14.34 11.43 14.23 11.71C14.1 12.06 13.9 12.37 13.63 12.63C13.35 12.91 13.09 13.08 12.71 13.23C12.43 13.34 12.01 13.47 11.23 13.5C10.38 13.54 10.13 13.55 8 13.55C5.86 13.55 5.61 13.54 4.76 13.5C3.98 13.47 3.56 13.34 3.28 13.23C2.93 13.1 2.62 12.89 2.36 12.63C2.09 12.37 1.89 12.06 1.76 11.71C1.65 11.43 1.52 11 1.48 10.22C1.45 9.38 1.44 9.13 1.44 6.99C1.44 4.86 1.45 4.6 1.48 3.76C1.52 2.98 1.65 2.56 1.76 2.27C1.9 1.9 2.08 1.63 2.36 1.35C2.64 1.07 2.9 0.9 3.28 0.76C3.56 0.65 3.98 0.52 4.76 0.48C5.5 0.45 5.79 0.44 7.28 0.44L7.28 0.44ZM12.27 1.77C12.14 1.77 12.02 1.79 11.9 1.84C11.78 1.89 11.68 1.96 11.59 2.05C11.5 2.14 11.43 2.24 11.38 2.36C11.33 2.47 11.31 2.6 11.31 2.73C11.31 2.85 11.33 2.98 11.38 3.09C11.43 3.21 11.5 3.31 11.59 3.4C11.68 3.49 11.78 3.56 11.9 3.61C12.02 3.66 12.14 3.69 12.27 3.69C12.52 3.69 12.76 3.58 12.95 3.4C13.12 3.22 13.23 2.98 13.23 2.73C13.23 2.47 13.12 2.23 12.95 2.05C12.76 1.87 12.52 1.77 12.27 1.77ZM8 2.89C7.45 2.88 6.91 2.98 6.4 3.18C5.9 3.38 5.44 3.69 5.05 4.07C4.66 4.45 4.35 4.91 4.14 5.41C3.93 5.91 3.82 6.45 3.82 7C3.82 7.54 3.93 8.08 4.14 8.58C4.35 9.09 4.66 9.54 5.05 9.92C5.44 10.31 5.9 10.61 6.4 10.81C6.91 11.01 7.45 11.11 8 11.1C9.07 11.09 10.1 10.65 10.86 9.88C11.62 9.11 12.04 8.07 12.04 7C12.04 5.92 11.62 4.88 10.86 4.11C10.1 3.34 9.07 2.9 8 2.89ZM8 4.33C8.7 4.33 9.38 4.61 9.88 5.11C10.38 5.61 10.66 6.29 10.66 7C10.66 7.7 10.38 8.38 9.88 8.88C9.38 9.38 8.7 9.66 8 9.66C7.29 9.66 6.61 9.38 6.11 8.88C5.61 8.38 5.33 7.7 5.33 7C5.33 6.29 5.61 5.61 6.11 5.11C6.61 4.61 7.29 4.33 8 4.33Z" fill="#FFFFFF" fill-opacity="1.000000" fill-rule="nonzero"/>
</svg>
