<svg width="17.000000" height="17.000000" viewBox="0 0 17 17" fill="none" xmlns="http://www.w3.org/2000/svg" xmlns:xlink="http://www.w3.org/1999/xlink">
	<desc>
			Created with Pixso.
	</desc>
	<defs>
		<clipPath id="clip2986_16432">
			<rect id="icn settings icn-xs" width="16.000502" height="16.000391" transform="translate(0.000000 -0.000244)" fill="white" fill-opacity="0"/>
		</clipPath>
	</defs>
	<rect id="icn settings icn-xs" width="16.000502" height="16.000391" transform="translate(0.000000 -0.000244)" fill="#FFFFFF" fill-opacity="0"/>
	<g clip-path="url(#clip2986_16432)">
		<path id="Vector" d="M3.65 1.32C3.59 1.25 3.52 1.18 3.43 1.14C3.35 1.09 3.25 1.07 3.16 1.06C3.06 1.06 2.96 1.07 2.87 1.11C2.78 1.14 2.7 1.19 2.63 1.26L1.6 2.3C1.12 2.78 0.94 3.46 1.15 4.07C2.03 6.55 3.45 8.81 5.32 10.67C7.18 12.54 9.44 13.97 11.93 14.84C12.53 15.05 13.21 14.87 13.7 14.39L14.73 13.36C14.8 13.29 14.85 13.21 14.89 13.12C14.92 13.03 14.93 12.93 14.93 12.84C14.92 12.74 14.9 12.65 14.85 12.56C14.81 12.48 14.74 12.4 14.67 12.34L12.36 10.55C12.28 10.49 12.19 10.44 12.08 10.42C11.98 10.4 11.88 10.4 11.78 10.43L9.59 10.97C9.3 11.05 8.99 11.04 8.7 10.96C8.41 10.88 8.15 10.73 7.93 10.51L5.48 8.06C5.26 7.84 5.11 7.58 5.03 7.29C4.95 7 4.94 6.69 5.02 6.4L5.57 4.21C5.59 4.11 5.59 4.01 5.57 3.91C5.55 3.81 5.51 3.71 5.44 3.63L3.65 1.32ZM1.88 0.51C2.05 0.33 2.26 0.2 2.5 0.11C2.73 0.02 2.98 -0.02 3.22 0C3.47 0.01 3.71 0.08 3.93 0.2C4.15 0.31 4.34 0.47 4.49 0.67L6.29 2.98C6.61 3.4 6.73 3.95 6.6 4.47L6.05 6.66C6.03 6.77 6.03 6.89 6.06 7C6.09 7.12 6.15 7.22 6.23 7.3L8.69 9.76C8.77 9.84 8.87 9.9 8.99 9.93C9.1 9.96 9.22 9.97 9.33 9.94L11.52 9.39C11.78 9.33 12.05 9.32 12.3 9.38C12.56 9.43 12.81 9.54 13.02 9.71L15.32 11.5C16.15 12.14 16.23 13.37 15.48 14.11L14.45 15.14C13.71 15.88 12.6 16.21 11.57 15.85C8.93 14.92 6.54 13.41 4.56 11.43C2.58 9.45 1.07 7.06 0.14 4.42C-0.22 3.39 0.11 2.28 0.85 1.54L1.88 0.51L1.88 0.51Z" fill="#FFFFFF" fill-opacity="1.000000" fill-rule="nonzero"/>
	</g>
</svg>
