<svg width="16.000000" height="13.000000" viewBox="0 0 16 13" fill="none" xmlns="http://www.w3.org/2000/svg" xmlns:xlink="http://www.w3.org/1999/xlink">
	<desc>
			Created with Pixso.
	</desc>
	<defs/>
	<path id="Vector" d="M5.02 12C11.06 12 14.36 6.99 14.36 2.66C14.36 2.52 14.36 2.38 14.36 2.24C15 1.77 15.55 1.2 16 0.54C15.39 0.8 14.76 0.98 14.11 1.06C14.79 0.65 15.31 0 15.55 -0.76C14.91 -0.38 14.2 -0.11 13.47 0.03C12.97 -0.49 12.32 -0.84 11.6 -0.96C10.89 -1.08 10.16 -0.96 9.52 -0.62C8.88 -0.28 8.38 0.27 8.08 0.93C7.78 1.58 7.71 2.32 7.87 3.03C6.56 2.96 5.29 2.62 4.12 2.03C2.96 1.44 1.93 0.61 1.1 -0.4C0.68 0.32 0.56 1.18 0.75 1.99C0.93 2.8 1.43 3.51 2.12 3.98C1.6 3.96 1.09 3.82 0.63 3.57L0.63 3.62C0.64 4.37 0.9 5.11 1.38 5.69C1.86 6.28 2.52 6.68 3.27 6.83C2.99 6.91 2.69 6.95 2.4 6.95C2.2 6.95 1.99 6.93 1.79 6.89C2 7.54 2.41 8.11 2.96 8.52C3.51 8.93 4.17 9.16 4.86 9.17C3.69 10.08 2.25 10.58 0.78 10.58C0.51 10.58 0.25 10.56 0 10.53C1.5 11.49 3.24 12 5.02 12Z" fill="#FFFFFF" fill-opacity="1.000000" fill-rule="nonzero"/>
</svg>
