<svg width="16.000000" height="12.000000" viewBox="0 0 16 12" fill="none" xmlns="http://www.w3.org/2000/svg" xmlns:xlink="http://www.w3.org/1999/xlink">
	<desc>
			Created with Pixso.
	</desc>
	<defs/>
	<path id="Vector" d="M8.05 -0.01L8.13 -0.01C8.96 0 13.12 0.03 14.25 0.33C14.58 0.42 14.89 0.6 15.14 0.85C15.39 1.1 15.57 1.41 15.66 1.75C15.76 2.13 15.83 2.63 15.88 3.15L15.89 3.26L15.91 3.52L15.92 3.62C15.99 4.53 15.99 5.39 15.99 5.58L15.99 5.65C15.99 5.85 15.98 6.76 15.91 7.71L15.9 7.82L15.9 7.92C15.84 8.49 15.77 9.06 15.66 9.48C15.57 9.82 15.39 10.13 15.14 10.38C14.89 10.63 14.58 10.81 14.25 10.9C13.08 11.21 8.68 11.23 8.07 11.23L7.92 11.23C7.61 11.23 6.34 11.23 5 11.18L4.83 11.18L4.74 11.17L4.57 11.16L4.4 11.16C3.29 11.11 2.23 11.03 1.74 10.9C1.4 10.81 1.09 10.63 0.85 10.38C0.6 10.13 0.42 9.82 0.33 9.48C0.22 9.06 0.14 8.49 0.09 7.92L0.08 7.82L0.08 7.71C0.03 7.03 0 6.35 0 5.68L0 5.55C0 5.34 0 4.59 0.06 3.77L0.07 3.67L0.07 3.62L0.08 3.52L0.1 3.26L0.11 3.15C0.16 2.63 0.23 2.13 0.33 1.75C0.42 1.41 0.6 1.1 0.85 0.85C1.09 0.6 1.4 0.42 1.74 0.33C2.23 0.2 3.29 0.12 4.4 0.07L4.57 0.06L4.74 0.06L4.83 0.05L5 0.05C5.95 0.02 6.9 0 7.85 0L8.05 0L8.05 -0.01ZM6.4 3.2L6.4 8.02L10.55 5.61L6.4 3.2Z" fill="#FFFFFF" fill-opacity="1.000000" fill-rule="nonzero"/>
</svg>
